<svg width="402" height="195" viewBox="0 0 402 195" fill="none" xmlns="http://www.w3.org/2000/svg">
<path d="M90.5922 89C90.0922 88.7 89.4922 88.8 89.1922 89.3C76.5922 109.8 63.4922 118 54.5922 121.2C51.0922 122.5 45.7922 124 41.3922 122C34.4922 118.9 32.4922 109.6 31.9922 105.8C30.9922 98.9 32.6922 91.3 36.6922 84.5C40.5922 77.8 46.3922 72.3 52.9922 69C57.2922 66.9 61.9922 65.6 66.9922 65.3C67.5922 65.3 67.9922 64.9 67.9922 64.4C67.9922 63.9 67.6922 63.4 67.1922 63.3C66.1922 63.1 65.6922 62.5 65.4922 61.5C64.7922 57.6 69.5922 49.5 74.5922 46.3C76.0922 45.3 78.1922 44.4 79.8922 45.6C80.9922 46.3 81.4922 47.2 81.5922 48.3C81.6922 52.4 75.4922 58.3 73.0922 60.3C72.6922 60.6 72.5922 61.3 72.8922 61.7C73.2922 62.2 73.8922 62.2 74.3922 61.9C74.4922 61.8 76.6922 60 78.9922 57.4C82.1922 53.9 83.6922 50.8 83.5922 48.3C83.5922 46.5 82.6922 45 81.0922 43.9C79.5922 42.9 77.0922 42.2 73.4922 44.6C67.7922 48.2 62.5922 57.2 63.4922 61.9C63.5922 62.5 63.7922 63.1 64.0922 63.6C59.8922 64.1 55.7922 65.3 52.0922 67.2C37.3922 74.4 27.8922 91.2 29.8922 106.1C30.4922 110.2 32.6922 120.3 40.5922 123.9C42.3922 124.7 44.2922 125 46.1922 125C49.5922 125 52.7922 124 55.2922 123.1C64.4922 119.8 78.0922 111.4 90.8922 90.4C91.1922 89.9 90.9922 89.3 90.5922 89ZM117.058 114.7C116.558 114.5 115.958 114.7 115.758 115.2C115.058 116.6 113.158 120.1 109.058 121.9C106.458 123 104.058 123.1 102.458 123C100.958 122.3 99.7578 121.9 98.6578 121.6C99.0578 120.8 99.4578 119.9 99.9578 118.8C100.158 118.3 100.258 117.9 100.358 117.7C100.458 117.6 100.458 117.5 100.558 117.4C101.858 117.4 103.058 116.7 104.358 115.3C104.658 114.8 104.658 114.2 104.258 113.8C103.758 113.5 103.158 113.5 102.758 113.9C102.358 114.4 101.958 114.7 101.658 115C102.558 112.5 102.658 110.7 101.858 109.6C101.458 109 100.658 108.3 99.0578 108.4C98.0578 108.5 97.0578 108.9 96.2578 109.5L89.2578 114.8C88.7578 115.2 88.6578 115.8 89.0578 116.2C89.3578 116.7 90.0578 116.8 90.4578 116.4L97.4578 111.1C98.0578 110.7 98.5578 110.5 99.1578 110.5C99.5578 110.4 100.058 110.5 100.158 110.7C100.258 110.9 100.758 111.9 99.3578 115.2C99.0578 115.1 98.6578 115.1 98.1578 115C97.3578 114.9 96.4578 114.9 95.6578 114.9C95.1578 115 94.6578 115.4 94.7578 116C94.7578 116.6 95.2578 117 95.8578 117C96.5578 116.9 97.1578 116.9 97.8578 117C98.0578 117 98.2578 117.1 98.4578 117.1C98.3578 117.3 98.1578 117.6 98.0578 118C97.7578 118.7 97.0578 120.1 96.4578 121.3C96.0578 121.3 95.6578 121.4 95.3578 121.5C94.9578 121.7 93.8578 122.1 93.7578 123.1C93.6578 123.9 94.3578 124.8 95.1578 125C96.0578 125.2 96.7578 124.7 97.5578 123.5C98.5578 123.6 99.9578 124.1 101.758 124.9C101.858 125 101.958 125 102.058 125C102.558 125 103.058 125.1 103.558 125.1C105.358 125.1 107.558 124.8 109.858 123.8C114.458 121.7 116.658 118.1 117.558 116.1C117.858 115.6 117.558 114.9 117.058 114.7ZM142.109 114.8C141.709 114.5 141.009 114.7 140.809 115.2C137.009 121.8 131.309 124 128.909 122.6C127.509 121.9 126.709 119.5 126.509 116.2C127.909 115.1 128.909 113.7 129.009 112.3C129.109 112 129.209 109.6 127.709 109.1C127.509 109 126.909 109 126.309 109.4C124.609 110.5 124.409 113.4 124.409 114.3C124.409 114.5 124.409 114.8 124.409 115C123.609 115.5 122.609 115.8 121.709 115.9C119.909 116.1 118.309 115.4 117.409 114.9C116.909 114.6 116.309 114.7 116.009 115.2C115.709 115.7 115.809 116.3 116.309 116.6C117.609 117.4 119.509 118.2 121.909 118C122.809 117.9 123.709 117.6 124.509 117.3C124.809 120.2 125.709 123.2 127.909 124.4C128.709 124.8 129.609 125 130.609 125C134.309 125 139.209 122.1 142.509 116.2C142.809 115.7 142.609 115.1 142.109 114.8ZM127.009 111.6C127.009 111.8 127.009 112 127.009 112.1C126.909 112.5 126.809 112.8 126.609 113.2C126.709 112.6 126.809 112 127.009 111.6ZM172.641 114.5C172.141 114.3 171.541 114.5 171.341 115C169.041 119.5 161.841 121.8 158.041 120.3C156.041 119.5 155.441 117.7 156.341 115.2C157.141 112.7 156.841 111 155.541 110C154.141 109.1 151.741 109.3 148.341 110.7C145.741 111.9 142.741 113.7 140.341 115.7C137.841 117.7 135.041 120.6 136.041 122.8C136.441 123.9 137.341 124.6 138.441 124.9C138.841 125 139.241 125.1 139.641 125.1C143.941 125.1 150.641 120.4 153.941 118C154.241 120.6 156.141 121.7 157.241 122.2C161.941 124.1 170.341 121.5 173.141 115.9C173.341 115.4 173.141 114.8 172.641 114.5ZM154.341 114.5C154.341 114.8 154.241 115 154.141 115.2C149.841 118.7 142.041 123.7 138.941 122.9C138.441 122.8 138.141 122.5 137.941 122C137.641 121.5 138.541 119.8 141.641 117.3C145.641 114 150.841 111.5 153.341 111.5C153.841 111.5 154.141 111.6 154.341 111.7C154.841 112.1 154.841 113.1 154.341 114.5ZM254.188 45.1C253.688 44.9 253.088 45.2 252.888 45.8C252.888 45.9 248.688 58.5 244.588 72.8C242.588 79.8 240.988 86.1 239.788 91.5C236.988 87.6 233.288 83.9 228.788 80.4C221.188 74.6 213.888 71.6 213.588 71.5C213.588 71.5 213.488 71.5 213.488 71.4C217.288 56.8 221.488 44.5 221.588 44.3C221.688 43.8 221.488 43.2 220.888 43C220.387 42.8 219.788 43.1 219.588 43.7C219.488 44.1 205.988 83.7 204.887 106.5C204.787 107.1 205.287 107.6 205.788 107.6H205.888C206.388 107.6 206.888 107.2 206.888 106.6C207.388 97.2 209.988 84.7 212.888 73.4C213.788 73.8 220.588 76.8 227.588 82.1C233.088 86.2 236.688 90.4 239.188 94.2C237.488 102.3 236.788 108.3 236.988 112.1C237.388 118.6 238.988 123.3 241.188 124.4C241.588 124.6 241.888 124.7 242.288 124.7C242.688 124.7 243.188 124.5 243.588 124.2C245.988 122.5 246.788 116.1 245.788 106.5C245.388 102.2 243.888 97.9 241.388 93.9C245.788 73.5 254.688 46.8 254.888 46.4C254.988 45.9 254.788 45.3 254.188 45.1ZM243.788 106.7C244.888 117.7 243.388 121.9 242.388 122.6C242.288 122.6 242.188 122.6 242.088 122.6C241.188 122.1 239.488 118.8 238.988 112C238.788 108.4 239.488 103 240.788 96.9C242.688 100.6 243.488 104 243.788 106.7ZM283.923 115.2C283.623 114.7 283.023 114.5 282.523 114.8C277.223 118 274.223 118.1 272.723 117.7C271.523 117.3 271.123 116.5 271.123 116.5C270.923 116.2 270.623 116 270.323 115.9C269.923 115.8 269.623 116 269.323 116.2C267.523 118.4 261.623 123.7 257.423 123C257.023 122.9 256.623 122.7 256.423 122.3C255.023 120.2 255.723 114.9 256.123 113C256.223 112.4 255.823 111.9 255.323 111.8C254.723 111.6 254.223 112 254.023 112.6C253.923 113.3 252.523 120.3 254.723 123.4C255.323 124.3 256.123 124.8 257.023 125C257.423 125.1 257.823 125.1 258.223 125.1C263.023 125.1 268.123 120.5 270.023 118.5C270.523 118.9 271.123 119.3 272.023 119.6C274.823 120.5 278.723 119.5 283.523 116.6C284.023 116.3 284.223 115.7 283.923 115.2ZM312.315 114.5C311.815 114.4 311.215 114.7 311.115 115.3C310.215 119.5 307.015 122.6 303.715 122.7C301.715 122.8 300.115 121.8 299.115 121C299.115 121 299.015 121 299.015 120.9H298.915C298.915 120.9 298.915 120.9 298.815 120.9C298.815 120.8 298.815 120.8 298.715 120.8C298.715 120.8 298.715 120.8 298.615 120.8C298.615 120.8 298.615 120.8 298.515 120.8C298.515 120.8 298.515 120.8 298.415 120.8C298.415 120.8 298.415 120.8 298.315 120.8C298.315 120.8 298.315 120.8 298.215 120.8C298.215 120.8 298.215 120.8 298.115 120.9C298.015 120.9 298.015 120.9 298.015 120.9C297.915 120.9 297.915 121 297.915 121C297.915 121 297.815 121 297.815 121.1C296.915 121.9 296.015 122.8 295.015 123.7C295.215 121 295.415 118.2 295.515 115.5V115.4V115.3C295.515 115.2 295.415 115.2 295.415 115.2V115.1V115L295.315 114.9C295.315 114.9 295.315 114.9 295.315 114.8C295.315 114.8 295.215 114.8 295.215 114.7C295.215 114.7 295.215 114.7 295.115 114.7V114.6C295.015 114.6 295.015 114.6 295.015 114.5C294.915 114.5 294.915 114.5 294.915 114.5H294.815C294.715 114.5 294.715 114.4 294.715 114.4H294.615H294.515C294.515 114.4 294.515 114.4 294.415 114.4H294.315C294.315 114.4 294.315 114.4 294.215 114.4L294.115 114.5C294.015 114.5 294.015 114.5 293.915 114.6C293.815 114.6 293.815 114.6 293.815 114.7C293.715 114.7 293.715 114.7 293.715 114.7C293.715 114.8 293.715 114.8 293.615 114.8C293.615 114.9 293.615 114.9 293.615 114.9L293.515 115C290.615 121.1 287.115 123.3 286.015 122.9C285.015 122.5 284.315 119.7 284.715 115.6C284.815 115 284.415 114.5 283.815 114.5C283.215 114.4 282.715 114.8 282.715 115.4C281.915 122.9 284.415 124.5 285.215 124.8C285.515 124.9 285.915 125 286.315 125C288.315 125 290.915 123 293.215 119.6C293.115 121.7 293.015 123.9 292.815 126C284.015 135.1 273.015 148.5 271.215 160.8C270.315 167.1 271.015 171.3 273.515 173.5C274.615 174.6 276.015 175 277.415 175C279.115 175 280.715 174.4 281.715 173.9C283.515 172.9 285.615 171.4 287.615 166.8C289.715 162 291.415 154.5 293.015 143.7C293.715 138.2 294.415 132.6 294.815 126.9C296.115 125.5 297.415 124.3 298.615 123.2C299.815 124 301.515 124.7 303.515 124.7C303.615 124.7 303.715 124.7 303.815 124.7C308.115 124.6 311.915 120.9 313.115 115.7C313.215 115.2 312.915 114.6 312.315 114.5ZM290.915 143.4C287.415 168.6 283.115 170.9 280.815 172.1C280.815 172.1 277.015 174 274.915 172C273.015 170.3 272.415 166.6 273.215 161.1C274.915 150.2 284.315 138 292.615 129.2C292.115 134 291.615 138.8 290.915 143.4ZM342.782 114.8C342.382 114.3 341.782 114.2 341.282 114.5C336.582 117.9 332.782 119 330.082 117.9C328.582 117.2 327.782 116 326.882 114.7C326.082 113.4 325.182 112.1 323.382 111.6C320.482 110.8 316.982 113.1 312.482 118.6L315.182 109.6C315.282 109.1 314.982 108.5 314.482 108.4C313.882 108.2 313.282 108.5 313.182 109.1L308.882 123.7C308.782 124.2 308.982 124.7 309.482 124.9C309.582 125 309.782 125 309.882 125C310.282 125 310.582 124.8 310.782 124.6C317.882 114.1 321.382 113.2 322.882 113.6C323.882 113.8 324.482 114.7 325.182 115.9C326.082 117.2 327.182 118.8 329.282 119.7C332.682 121.2 337.182 120 342.482 116.2C342.982 115.9 343.082 115.2 342.782 114.8ZM372.425 114.7C371.925 114.3 371.325 114.3 370.925 114.8L370.525 115.3C365.625 120.8 361.425 123.4 357.825 122.9C356.125 122.6 354.525 121.7 353.025 120.8C351.025 119.5 348.925 118.2 346.425 118.9C345.425 119.2 344.425 119.7 343.625 120.6C343.625 119.1 343.725 117.3 343.925 115.2C349.025 107.1 355.925 95.1 361.025 83.9C367.425 69.9 369.025 61.1 366.125 56.8C364.525 54.6 362.725 54.8 361.825 55.2C355.925 57.5 349.925 77.6 347.625 86.1C344.825 96.7 342.725 107.1 341.925 114.7C341.925 114.8 341.925 114.8 341.925 114.9C341.525 118.7 341.425 121.8 341.725 123.9C341.825 124.4 342.125 124.7 342.625 124.8C343.025 124.9 343.425 124.6 343.625 124.2C344.625 122.3 345.725 121.2 346.925 120.9C348.625 120.4 350.225 121.4 352.025 122.5C353.625 123.5 355.425 124.6 357.525 124.9C358.025 125 358.425 125 358.825 125C362.825 125 367.125 122.2 372.025 116.6L372.525 116.1C372.825 115.7 372.825 115 372.425 114.7ZM349.625 86.6C354.125 70 359.125 58.4 362.525 57.1C362.725 57.1 362.825 57 363.025 57C363.425 57 363.825 57.2 364.425 58C368.325 63.6 360.925 83 344.625 110.2C345.625 103.4 347.325 95 349.625 86.6Z" fill="#322D75"/>
</svg>
