<svg width="500" height="150" viewBox="0 0 500 150" fill="none" xmlns="http://www.w3.org/2000/svg">
<rect width="500" height="150" fill="white"/>
<path d="M86 39.448C86.576 39.832 86.96 40.216 87.536 40.408C88.304 40.6 89.264 40.6 90.032 40.6C91.184 40.792 91.376 40.984 91.376 41.944C91.184 45.592 90.992 49.048 90.8 52.504C90.8 52.696 90.8 52.888 90.608 53.08C90.416 55.384 90.224 57.688 90.032 59.992C89.84 61.912 89.84 63.832 89.648 65.752C89.456 68.248 89.072 70.744 88.88 73.048C88.688 75.352 88.688 77.656 88.496 79.96C88.304 83.608 87.92 87.256 87.536 90.904C87.344 91.288 87.344 91.672 87.152 92.056C86.96 93.976 86.384 96.088 86.576 98.008C86.576 99.544 86.384 100.888 86.384 102.424C86.192 104.536 86.192 106.648 88.304 108.376C89.072 108.376 89.84 108.184 90.608 107.992C92.72 107.416 94.832 106.648 96.944 106.072C101.936 104.728 106.544 102.808 110.96 100.12C110.768 99.736 110.576 99.544 110.384 99.16C110.96 98.776 111.344 98.392 111.92 98.008C110.576 97.624 109.616 97.24 108.464 97.816C107.888 98.008 107.312 97.816 106.736 97.816C106.544 97.816 106.16 97.816 105.968 97.816C105.008 98.392 103.856 98.776 103.088 99.352C100.784 100.696 98.48 101.464 95.792 101.464C95.024 101.464 94.256 101.464 93.296 101.656C93.104 101.272 92.912 100.696 92.912 100.312C93.104 98.776 93.488 97.24 93.68 95.704C93.872 94.936 94.064 94.36 94.064 93.592C94.256 91.096 94.256 88.408 94.448 85.912C94.448 84.952 94.448 84.184 94.448 83.224C94.64 81.304 94.832 79.192 95.216 77.08C95.216 75.928 95.408 74.584 95.6 73.432C100.592 72.28 105.2 70.552 110 68.824C108.656 68.056 108.272 67.864 107.504 68.056C105.968 68.248 104.624 68.632 103.28 68.824C100.976 69.4 98.864 69.976 96.56 70.552C96.368 70.552 96.176 70.36 95.792 70.36C95.792 66.52 95.792 62.488 95.792 59.032C95.408 60.952 95.024 63.064 94.832 65.176C94.64 65.176 94.448 65.176 94.256 64.984C94.64 61.72 94.832 58.264 95.216 55C95.216 55 95.408 55 95.6 54.808C95.6 55.384 95.792 55.96 95.792 56.344C96.368 54.424 96.56 52.504 96.944 50.584C97.136 47.896 97.52 45.208 97.712 42.328C97.904 40.216 97.712 40.216 99.632 39.832C100.208 39.64 100.592 39.64 101.168 39.64C102.896 39.448 104.816 39.256 106.544 39.064C109.616 38.68 112.688 38.296 115.76 37.72C116.528 37.72 117.296 37.528 118.064 37.336C119.216 37.144 119.6 36.568 119.216 35.224C116.72 35.224 114.416 35.224 111.92 35.224C110.192 35.416 108.272 35.608 106.544 35.8C103.856 36.184 101.168 36.376 98.48 36.76C96.752 36.952 95.216 37.144 93.488 37.336C91.76 37.528 90.032 37.912 88.496 38.296C87.728 38.488 86.576 38.296 86 39.448ZM89.456 93.208C89.648 91.672 89.648 90.328 89.648 88.792C89.84 88.792 89.84 88.792 90.032 88.792C90.032 90.328 90.032 91.864 90.032 93.208C89.84 93.208 89.648 93.208 89.456 93.208ZM94.448 66.52C95.024 67.672 94.448 68.824 93.872 69.976C93.872 68.824 94.064 67.672 94.064 66.52C94.256 66.52 94.448 66.52 94.448 66.52ZM90.416 84.952C90.416 85.72 90.416 86.296 90.416 86.872C90.224 86.872 90.224 86.872 90.032 86.872C90.032 86.296 90.032 85.72 90.032 84.952C90.224 84.952 90.416 84.952 90.416 84.952ZM159.023 108.088C155.759 108.856 152.495 109.432 149.039 110.2C151.151 105.592 152.879 101.176 150.575 96.184C149.807 95.992 149.039 95.608 148.079 95.608C147.695 95.416 147.311 95.416 146.927 95.608C145.007 96.376 142.895 96.184 141.167 97.528C140.975 97.528 140.591 97.528 140.399 97.528C137.519 97.528 134.831 98.104 132.143 98.68C130.415 98.872 128.879 99.064 127.151 99.256C127.151 98.872 127.151 98.872 127.343 98.68C129.839 95.224 132.719 91.768 135.023 88.12C138.095 83.512 141.935 79.672 145.391 75.448C147.695 72.568 149.999 69.88 152.111 67C154.031 64.696 155.951 62.2 155.759 59.128C156.335 58.936 156.719 58.744 157.487 58.36C155.375 57.592 153.647 56.632 151.727 56.824C149.807 56.824 147.695 57.016 145.775 57.208C143.471 57.4 141.167 57.784 138.863 57.976C136.175 58.36 133.679 58.936 130.991 59.32C130.223 59.512 129.263 59.512 128.495 60.28C128.879 61.048 129.263 61.048 130.031 60.856C133.295 60.472 136.559 60.088 139.823 59.704C141.167 59.512 142.703 59.32 144.239 59.128C145.775 58.936 147.311 58.744 148.847 58.552C149.039 58.552 149.231 58.744 149.423 58.936C149.231 59.128 149.231 59.32 149.039 59.512C147.503 61.432 146.159 63.352 144.623 65.272C143.471 66.808 142.319 68.344 141.167 69.688C140.015 71.224 138.863 72.568 137.711 74.104C135.983 76.408 134.063 78.712 132.335 81.208C130.799 82.936 129.071 84.664 127.919 86.776C125.999 89.464 124.271 92.536 122.543 95.416C121.967 96.376 121.775 97.528 121.583 98.488C121.583 99.64 121.583 100.408 120.623 100.984C122.159 102.712 122.159 102.712 123.887 101.752C124.079 101.752 124.271 101.56 124.463 101.56C128.495 100.984 132.527 100.408 136.367 99.64C139.055 99.256 141.743 99.064 144.623 98.68C145.583 98.488 147.311 99.256 147.311 100.216C147.503 102.328 147.503 104.44 147.503 106.744C147.503 106.936 147.311 107.128 147.119 107.32C146.351 108.664 145.775 109.816 145.007 111.16C144.623 111.544 144.239 111.928 143.855 112.12C142.127 112.888 140.399 113.464 138.863 114.424C133.103 117.688 127.343 120.76 122.159 124.792C121.007 125.56 120.239 126.712 119.663 128.056C119.279 128.824 119.471 129.208 120.047 129.4C121.007 129.784 121.775 130.168 122.351 130.36C123.887 129.976 125.231 129.784 126.575 129.592C128.879 129.016 131.183 128.632 132.719 126.712C134.447 124.792 136.751 123.448 138.863 121.912C141.359 119.8 143.663 117.688 145.775 115.192C148.271 111.928 148.079 111.736 151.151 110.776C151.727 110.584 152.303 110.584 153.071 110.392C154.991 109.816 157.103 109.24 159.023 108.472C159.023 108.472 159.023 108.28 159.023 108.088ZM129.839 93.304C130.607 92.152 131.183 90.616 132.143 89.656C133.679 88.504 134.255 86.968 135.407 85.624C135.599 85.24 135.983 85.048 136.367 84.856C135.215 87.16 133.679 89.464 132.143 91.576C131.375 92.344 130.607 93.112 129.647 94.072C129.647 93.688 129.647 93.496 129.839 93.304ZM125.039 99.448C125.039 99.256 125.039 99.064 125.039 99.064C125.615 98.296 125.999 97.336 126.575 96.76C127.343 95.992 127.919 95.032 128.495 94.264C128.687 94.072 128.879 93.88 129.071 93.88C128.303 95.224 127.535 96.568 126.575 97.912C126.191 98.488 125.615 98.872 125.039 99.448ZM142.703 115C140.399 117.304 138.095 119.8 135.791 122.104C135.215 122.68 134.447 123.256 133.871 123.64C131.375 125.176 128.879 126.904 126.383 128.248C124.655 129.208 122.735 129.592 120.431 128.632C120.815 128.248 121.007 127.864 121.199 127.672C124.271 125.176 127.535 122.68 130.991 120.568C131.951 119.8 133.103 119.224 134.063 118.456C136.559 116.536 139.631 115.384 142.511 114.232C142.703 114.04 142.895 114.04 143.471 114.04C143.087 114.424 143.087 114.808 142.703 115ZM177.821 59.896C178.013 58.744 178.013 57.784 178.013 56.632C177.821 55.288 177.437 54.904 176.093 54.904C174.749 54.904 173.597 55.48 172.637 56.632C170.909 59.128 169.181 61.816 167.453 64.312C167.261 64.504 167.069 64.504 166.877 64.696C166.685 62.776 166.493 61.048 166.493 59.32C166.493 57.592 166.493 55.864 166.685 53.944C166.685 51.448 164.957 49.912 162.077 49.912C161.309 51.832 160.925 53.56 160.733 55.48C160.349 57.784 159.965 60.088 159.581 62.392C159.197 64.696 158.813 67.192 158.621 69.496C158.429 71.416 158.429 73.336 158.045 75.256C157.661 78.136 157.085 80.824 157.277 83.704C157.277 84.088 157.277 84.472 157.085 84.856C156.893 87.928 156.509 91 156.317 94.072C156.125 96.568 156.125 99.064 156.125 101.56C156.125 102.328 156.317 103.096 156.317 103.864C156.509 105.976 157.469 108.088 157.085 110.392C156.893 110.776 157.085 111.16 157.277 111.736C157.661 111.16 157.853 110.776 158.045 110.584C158.429 110.968 158.813 111.16 159.197 111.544C160.925 109.624 161.117 109.24 161.117 107.32C161.117 107.128 161.117 106.936 161.117 106.744C161.501 105.208 161.693 103.672 161.885 102.328C162.269 98.68 162.461 95.032 162.845 91.384C163.229 88.504 163.805 85.432 164.189 82.552C164.381 81.4 164.765 80.248 164.957 79.288C165.533 75.832 165.725 72.568 167.069 69.304C168.797 65.272 171.101 61.816 173.981 58.552C174.173 58.36 174.557 58.168 174.749 57.976C175.325 59.896 175.901 61.624 176.477 63.352C177.437 65.272 177.821 65.272 179.933 64.504C177.629 63.544 177.629 61.816 177.821 59.896ZM158.429 99.832C158.429 100.792 158.045 101.944 157.853 103.288C157.661 102.904 157.661 102.712 157.661 102.52C157.469 101.176 157.277 99.64 157.661 98.104C158.045 96.376 157.853 94.648 157.853 92.92C158.045 92.536 158.237 92.152 158.429 91.96C158.621 94.456 158.621 97.144 158.429 99.832ZM221.119 81.784C220.351 82.552 219.775 82.936 219.391 83.512C217.663 85.432 216.127 87.544 214.591 89.656C212.479 92.728 210.367 95.992 208.063 98.872C206.911 100.6 205.567 102.328 203.839 103.864C203.263 104.44 201.919 104.44 200.959 104.248C200.383 104.056 199.999 102.712 199.999 101.944C200.383 99.064 200.575 96.376 201.343 93.688C203.263 87.544 205.567 81.4 207.487 75.256C208.255 73.144 209.023 71.032 209.599 68.92C210.175 66.232 207.679 63.736 205.375 64.888C204.223 65.464 203.455 66.808 203.071 67.96C201.727 71.224 200.959 74.296 199.807 77.56C198.847 81.016 198.655 85.24 194.815 87.352C193.087 88.312 191.551 89.848 189.823 90.616C187.519 91.768 185.023 92.536 182.719 93.304C181.183 93.688 179.263 91.96 179.071 90.424C178.687 85.624 179.455 81.208 181.375 76.984C183.295 72.952 185.599 68.92 188.095 65.08C189.055 63.544 190.591 62.392 192.127 61.432C193.855 60.28 195.391 61.048 195.967 62.968C196.159 63.736 196.159 64.504 196.543 65.272C196.927 65.848 197.503 66.424 198.079 67C198.271 66.808 198.463 66.616 198.655 66.616C198.079 65.08 197.503 63.352 196.734 62.008C195.391 59.128 193.279 58.36 190.207 59.32C186.559 60.472 184.255 63.544 181.951 66.04C180.031 68.344 178.495 71.032 176.959 73.528C173.503 78.52 171.966 84.28 172.159 90.424C172.159 96.184 177.535 98.872 181.183 98.488C185.791 97.912 189.631 95.992 192.703 92.728C194.047 91.384 195.391 90.232 197.119 88.504C196.543 91 196.159 92.728 195.967 94.456C195.775 96.376 195.583 98.104 195.583 100.024C195.391 104.632 200.575 109.24 204.799 107.512C208.255 105.976 221.695 83.32 221.119 83.32C221.119 82.936 221.119 82.552 221.119 81.784ZM176.575 92.536C178.495 93.688 180.415 94.84 182.143 95.8C178.879 96.376 176.575 95.032 176.575 92.536ZM174.271 93.304C175.807 94.648 177.151 95.8 178.303 96.76C175.999 96.952 174.847 95.8 174.271 93.304Z" fill="url(#paint0_linear)"/>
<path d="M364.128 73.504C364.416 73.792 364.704 73.92 364.992 73.888C365.312 73.824 365.696 73.792 366.144 73.792C366.592 73.792 367.024 73.792 367.44 73.792C367.856 73.76 368.288 73.664 368.736 73.504C369.6 73.344 370.464 73.36 371.328 73.552C372.192 73.744 373.056 73.92 373.92 74.08L379.104 74.944C379.168 74.944 379.232 74.96 379.296 74.992C379.36 75.024 379.424 75.056 379.488 75.088C379.552 75.12 379.616 75.168 379.68 75.232C379.84 75.52 380.096 75.696 380.448 75.76C380.8 75.792 381.12 75.808 381.408 75.808C382.144 75.648 382.816 75.664 383.424 75.856C384.032 76.048 384.704 76.224 385.44 76.384C386.464 76.672 387.472 76.912 388.464 77.104C389.456 77.296 390.464 77.248 391.488 76.96C392.064 77.12 392.576 77.168 393.024 77.104C393.472 77.008 393.92 76.96 394.368 76.96C395.392 76.96 396.384 76.896 397.344 76.768C398.336 76.608 399.264 76.384 400.128 76.096C400.576 76.096 400.944 76.048 401.232 75.952C401.552 75.824 401.856 75.68 402.144 75.52C402.592 75.232 403.024 75.008 403.44 74.848C403.856 74.688 404.288 74.528 404.736 74.368C404.896 74.368 405.04 74.32 405.168 74.224C405.296 74.096 405.44 73.952 405.6 73.792C405.664 73.76 405.728 73.712 405.792 73.648C405.856 73.616 405.92 73.584 405.984 73.552C406.048 73.52 406.112 73.504 406.176 73.504C406.752 73.344 407.264 73.136 407.712 72.88C408.16 72.624 408.608 72.352 409.056 72.064C409.216 71.904 409.376 71.776 409.536 71.68C409.696 71.552 409.92 71.488 410.208 71.488C411.072 71.04 411.888 70.496 412.656 69.856C413.424 69.216 414.24 68.608 415.104 68.032C415.552 67.584 416.096 67.264 416.736 67.072C417.408 66.88 418.112 67.008 418.848 67.456C418.688 67.616 418.592 67.808 418.56 68.032C418.528 68.256 418.432 68.448 418.272 68.608C416.672 70.336 414.896 71.92 412.944 73.36C411.024 74.8 409.056 76.096 407.04 77.248C405.44 78.112 403.792 78.848 402.096 79.456C400.4 80.032 398.688 80.544 396.96 80.992C396.8 81.152 396.608 81.248 396.384 81.28C396.16 81.28 395.968 81.28 395.808 81.28C394.496 81.728 393.2 81.984 391.92 82.048C390.672 82.08 389.472 82.016 388.32 81.856C387.296 81.856 386.288 81.728 385.296 81.472C384.304 81.216 383.296 80.864 382.272 80.416C380.96 79.968 379.616 79.536 378.24 79.12C376.864 78.704 375.52 78.272 374.208 77.824C373.76 77.664 373.264 77.584 372.72 77.584C372.176 77.552 371.616 77.536 371.04 77.536C370.752 77.376 370.48 77.296 370.224 77.296C369.968 77.264 369.76 77.248 369.6 77.248C368.576 77.248 367.568 77.232 366.576 77.2C365.584 77.136 364.576 77.248 363.552 77.536C362.4 77.696 361.248 77.856 360.096 78.016C358.944 78.176 357.792 78.4 356.64 78.688C356.064 78.688 355.552 78.752 355.104 78.88C354.656 78.976 354.208 79.104 353.76 79.264C353.024 79.424 352.352 79.616 351.744 79.84C351.136 80.032 350.464 80.128 349.728 80.128C348.992 80.128 348.256 80.24 347.52 80.464C346.784 80.656 345.984 80.832 345.12 80.992C344.544 80.992 344.016 81.04 343.536 81.136C343.056 81.2 342.528 81.152 341.952 80.992C341.664 80.704 341.376 80.704 341.088 80.992C341.024 81.152 340.928 81.232 340.8 81.232C340.704 81.2 340.608 81.168 340.512 81.136C340.416 81.072 340.304 81.024 340.176 80.992C340.08 80.928 340 80.928 339.936 80.992C339.776 80.992 339.632 81.04 339.504 81.136C339.376 81.232 339.232 81.28 339.072 81.28C338.496 81.12 337.968 80.992 337.488 80.896C337.008 80.768 336.48 80.704 335.904 80.704C335.168 80.704 334.448 80.64 333.744 80.512C333.072 80.352 332.448 80.128 331.872 79.84C331.008 79.552 330.16 79.344 329.328 79.216C328.496 79.056 327.712 78.688 326.976 78.112C326.88 78.08 326.768 78.048 326.64 78.016C326.416 77.952 326.24 77.984 326.112 78.112C325.824 78.112 325.6 78.064 325.44 77.968C325.28 77.872 325.12 77.824 324.96 77.824C324.672 77.664 324.384 77.584 324.096 77.584C323.808 77.552 323.52 77.536 323.232 77.536C323.072 77.536 322.912 77.568 322.752 77.632C322.592 77.664 322.416 77.696 322.224 77.728C322.032 77.728 321.84 77.712 321.648 77.68C321.488 77.616 321.344 77.472 321.216 77.248C320.64 77.408 320.176 77.408 319.824 77.248C319.472 77.056 319.072 76.96 318.624 76.96C317.76 76.96 316.96 76.912 316.224 76.816C315.488 76.688 314.752 76.544 314.016 76.384H312H310.56C309.824 76.544 309.104 76.592 308.4 76.528C307.728 76.464 307.104 76.512 306.528 76.672C306.08 76.832 305.696 76.976 305.376 77.104C305.088 77.2 304.8 77.248 304.512 77.248C304.064 77.248 303.632 77.232 303.216 77.2C302.832 77.136 302.496 77.248 302.208 77.536C302.048 77.536 301.84 77.504 301.584 77.44C301.328 77.344 301.056 77.376 300.768 77.536C299.616 77.824 298.4 78.16 297.12 78.544C295.872 78.928 294.592 79.264 293.28 79.552C293.12 79.712 292.96 79.808 292.8 79.84C292.64 79.872 292.416 79.968 292.128 80.128C290.976 80.576 289.824 81.056 288.672 81.568C287.52 82.08 286.368 82.56 285.216 83.008C285.664 82.72 286.064 82.4 286.416 82.048C286.8 81.696 287.36 81.44 288.096 81.28C288.544 81.12 288.976 80.912 289.392 80.656C289.808 80.4 290.24 80.128 290.688 79.84C290.72 79.84 290.768 79.824 290.832 79.792C290.928 79.696 290.976 79.616 290.976 79.552C291.136 79.264 291.344 79.104 291.6 79.072C291.856 79.008 292.128 78.976 292.416 78.976C292.864 78.976 293.248 78.832 293.568 78.544C293.888 78.224 294.272 77.984 294.72 77.824L295.296 77.248C296.032 77.248 296.688 77.136 297.264 76.912C297.872 76.656 298.464 76.384 299.04 76.096C299.2 75.936 299.408 75.904 299.664 76C299.92 76.064 300.192 76.096 300.48 76.096C301.056 75.936 301.632 75.744 302.208 75.52C302.784 75.296 303.36 75.104 303.936 74.944H306.816C306.976 74.944 307.168 74.944 307.392 74.944C307.616 74.912 307.808 74.816 307.968 74.656C308.192 74.528 308.416 74.448 308.64 74.416C308.896 74.384 309.152 74.384 309.408 74.416C309.696 74.416 309.984 74.432 310.272 74.464C310.56 74.464 310.848 74.432 311.136 74.368H312.576C312.736 74.368 312.896 74.384 313.056 74.416C313.216 74.416 313.44 74.496 313.728 74.656C314.016 74.368 314.304 74.208 314.592 74.176C314.912 74.144 315.296 74.208 315.744 74.368C316.192 74.528 316.672 74.624 317.184 74.656C317.696 74.656 318.176 74.656 318.624 74.656C319.2 74.816 319.824 74.912 320.496 74.944C321.2 74.976 321.92 75.072 322.656 75.232C322.816 75.68 323.072 75.952 323.424 76.048C323.808 76.112 324.224 76.224 324.672 76.384C324.96 76.544 325.248 76.64 325.536 76.672C325.824 76.672 326.112 76.672 326.4 76.672C327.264 76.96 328.176 77.088 329.136 77.056C330.096 77.024 331.008 77.088 331.872 77.248C331.872 77.376 331.92 77.408 332.016 77.344C332.048 77.312 332.096 77.28 332.16 77.248C332.288 77.472 332.448 77.616 332.64 77.68C332.864 77.744 333.088 77.776 333.312 77.776C333.568 77.776 333.808 77.776 334.032 77.776C334.288 77.744 334.528 77.76 334.752 77.824H337.92C338.784 77.536 339.648 77.36 340.512 77.296C341.376 77.232 342.24 77.12 343.104 76.96C344.416 76.512 345.664 76.208 346.848 76.048C348.032 75.856 349.28 75.68 350.592 75.52C350.752 75.52 350.96 75.472 351.216 75.376C351.472 75.248 351.744 75.104 352.032 74.944C352.192 74.944 352.352 74.912 352.512 74.848C352.672 74.752 352.896 74.784 353.184 74.944H354.048C354.336 74.784 354.656 74.704 355.008 74.704C355.36 74.704 355.616 74.784 355.776 74.944C356.224 74.656 356.592 74.448 356.88 74.32C357.2 74.16 357.504 74.08 357.792 74.08C357.792 73.92 357.888 73.84 358.08 73.84C358.272 73.84 358.368 73.92 358.368 74.08C358.528 74.24 358.72 74.32 358.944 74.32C359.168 74.32 359.36 74.24 359.52 74.08C359.648 73.792 359.888 73.664 360.24 73.696C360.624 73.728 360.96 73.664 361.248 73.504C361.408 73.344 361.536 73.264 361.632 73.264C361.76 73.264 361.824 73.344 361.824 73.504C362.272 73.792 362.656 73.872 362.976 73.744C363.296 73.584 363.68 73.504 364.128 73.504ZM353.184 76.672C353.024 76.672 352.896 76.624 352.8 76.528C352.736 76.496 352.672 76.448 352.608 76.384C351.744 76.544 350.928 76.704 350.16 76.864C349.392 77.024 348.576 77.248 347.712 77.536C347.424 77.696 347.136 77.824 346.848 77.92C346.56 78.016 346.272 77.984 345.984 77.824H345.408C344.96 78.272 344.528 78.528 344.112 78.592C343.696 78.656 343.264 78.688 342.816 78.688C341.792 78.688 340.784 78.736 339.792 78.832C338.8 78.928 337.792 78.976 336.768 78.976H336.192C336.192 79.136 336.24 79.264 336.336 79.36C336.368 79.424 336.416 79.488 336.48 79.552C336.928 79.552 337.36 79.6 337.776 79.696C338.192 79.792 338.624 79.84 339.072 79.84C339.648 79.84 340.224 79.792 340.8 79.696C341.376 79.568 341.952 79.424 342.528 79.264H343.104C343.264 79.104 343.456 79.024 343.68 79.024C343.904 78.992 344.096 78.976 344.256 78.976H347.424C347.488 78.912 347.552 78.864 347.616 78.832C347.68 78.8 347.744 78.768 347.808 78.736C347.872 78.704 347.936 78.688 348 78.688C348.16 78.528 348.304 78.448 348.432 78.448C348.56 78.416 348.704 78.4 348.864 78.4C349.6 78.112 350.32 77.872 351.024 77.68C351.728 77.456 352.448 77.12 353.184 76.672ZM379.392 78.4C380.032 78.848 380.88 79.264 381.936 79.648C383.024 80 384.112 80.304 385.2 80.56C386.32 80.784 387.376 80.928 388.368 80.992C389.36 81.024 390.112 80.928 390.624 80.704C390.464 80.704 390.256 80.656 390 80.56C389.744 80.432 389.472 80.288 389.184 80.128H390.624L386.304 79.264L386.88 79.84C385.568 79.552 384.32 79.28 383.136 79.024C381.952 78.768 380.704 78.56 379.392 78.4ZM353.472 76.384C353.92 76.544 354.176 76.64 354.24 76.672C354.336 76.672 354.464 76.672 354.624 76.672V76.096C354.464 76.256 354.32 76.352 354.192 76.384C354.064 76.384 353.92 76.384 353.76 76.384H353.472ZM277.728 83.008C277.44 82.72 277.2 82.448 277.008 82.192C276.816 81.936 276.576 81.728 276.288 81.568C275.136 80.416 274.848 79.264 275.424 78.112C275.712 77.536 276.224 77.072 276.96 76.72C277.696 76.336 278.432 76.224 279.168 76.384C279.328 76.384 279.472 76.448 279.6 76.576C279.728 76.672 279.872 76.8 280.032 76.96C280.32 77.248 280.56 77.52 280.752 77.776C280.976 78.032 281.312 78.24 281.76 78.4C282.08 78.72 282.08 79.2 281.76 79.84C281.6 80.128 281.44 80.416 281.28 80.704C281.12 80.992 280.896 81.28 280.608 81.568C281.472 81.728 282.336 81.728 283.2 81.568C284.064 81.376 284.928 81.28 285.792 81.28C286.144 81.344 286.496 81.36 286.848 81.328C287.232 81.264 287.616 81.2 288 81.136C288.384 81.072 288.768 81.024 289.152 80.992C289.536 80.928 289.952 80.928 290.4 80.992C290.112 81.568 289.712 81.92 289.2 82.048C288.72 82.144 288.256 82.272 287.808 82.432C286.496 82.592 285.248 82.768 284.064 82.96C282.88 83.152 281.632 83.168 280.32 83.008C280.032 83.008 279.744 83.296 279.456 83.872C277.728 86.752 275.424 89.056 272.544 90.784C271.52 91.52 270.4 92.112 269.184 92.56C267.968 93.008 266.784 93.376 265.632 93.664C264.608 94.112 263.584 94.416 262.56 94.576C261.536 94.736 260.448 94.816 259.296 94.816C259.008 94.816 258.656 94.864 258.24 94.96C257.856 95.024 257.44 94.976 256.992 94.816C256.256 94.816 255.536 94.768 254.832 94.672C254.128 94.576 253.408 94.528 252.672 94.528C251.648 94.528 250.688 94.368 249.792 94.048C248.896 93.696 247.936 93.376 246.912 93.088C246.624 92.928 246.32 92.736 246 92.512C245.712 92.288 245.344 92.096 244.896 91.936C246.208 92.384 247.52 92.832 248.832 93.28C250.144 93.728 251.52 93.952 252.96 93.952C252.8 93.664 252.608 93.504 252.384 93.472C252.16 93.408 251.968 93.376 251.808 93.376C250.208 92.928 248.768 92.384 247.488 91.744C246.24 91.072 244.896 90.368 243.456 89.632C242.72 89.056 241.936 88.544 241.104 88.096C240.272 87.648 239.424 87.2 238.56 86.752L238.272 86.464C237.984 86.528 237.712 86.528 237.456 86.464C237.2 86.368 236.944 86.24 236.688 86.08C236.464 85.92 236.24 85.744 236.016 85.552C235.824 85.36 235.616 85.184 235.392 85.024C235.104 84.864 234.768 84.656 234.384 84.4C234 84.144 233.664 83.872 233.376 83.584C233.088 83.136 232.688 82.88 232.176 82.816C231.696 82.72 231.232 82.592 230.784 82.432C230.624 82.272 230.48 82.176 230.352 82.144C230.256 82.112 230.208 82.016 230.208 81.856C229.92 81.568 229.584 81.408 229.2 81.376C228.816 81.312 228.48 81.28 228.192 81.28C227.456 81.44 226.784 81.584 226.176 81.712C225.6 81.84 225.024 81.984 224.448 82.144C224.288 82.304 224.096 82.4 223.872 82.432C223.648 82.464 223.456 82.56 223.296 82.72C222.432 83.296 221.632 83.936 220.896 84.64C220.192 85.312 219.552 86.016 218.976 86.752C218.816 86.912 218.672 87.056 218.544 87.184C218.416 87.28 218.272 87.328 218.112 87.328C217.952 87.616 217.76 87.856 217.536 88.048C217.312 88.24 217.12 88.48 216.96 88.768C216.96 88.928 216.896 89.072 216.768 89.2C216.672 89.328 216.544 89.472 216.384 89.632C216.096 89.344 215.968 89.12 216 88.96C216.064 88.8 216.096 88.64 216.096 88.48C216.544 87.616 217.04 86.816 217.584 86.08C218.16 85.344 218.816 84.608 219.552 83.872C219.872 83.232 220.352 82.752 220.992 82.432C221.728 81.696 222.56 81.168 223.488 80.848C224.448 80.528 225.44 80.288 226.464 80.128H228.192C228.928 79.968 229.648 80.016 230.352 80.272C231.056 80.496 231.776 80.832 232.512 81.28C233.248 81.568 233.92 81.904 234.528 82.288C235.136 82.672 235.808 83.008 236.544 83.296C236.992 83.584 237.424 83.824 237.84 84.016C238.256 84.208 238.688 84.448 239.136 84.736C239.584 85.024 240.064 85.312 240.576 85.6C241.088 85.888 241.568 86.176 242.016 86.464C243.168 87.2 244.32 87.872 245.472 88.48C246.624 89.056 247.776 89.632 248.928 90.208C249.504 90.368 250.016 90.56 250.464 90.784C250.912 91.008 251.36 91.2 251.808 91.36C252.672 91.808 253.584 92.112 254.544 92.272C255.536 92.432 256.544 92.512 257.568 92.512H260.16C262.464 92.352 264.624 91.952 266.64 91.312C268.656 90.672 270.528 89.632 272.256 88.192C272.992 87.744 273.664 87.248 274.272 86.704C274.88 86.16 275.552 85.6 276.288 85.024C276.576 84.736 276.816 84.4 277.008 84.016C277.2 83.632 277.44 83.296 277.728 83.008ZM276 79.552C276.448 79.84 276.816 80.112 277.104 80.368C277.424 80.624 277.728 80.832 278.016 80.992C278.176 81.152 278.32 81.2 278.448 81.136C278.576 81.04 278.72 80.992 278.88 80.992C279.04 80.832 279.136 80.704 279.168 80.608C279.2 80.48 279.296 80.416 279.456 80.416C279.456 80.288 279.488 80.16 279.552 80.032C279.648 79.904 279.744 79.792 279.84 79.696C279.936 79.6 280 79.504 280.032 79.408C280.096 79.28 280.096 79.136 280.032 78.976C279.744 78.528 279.456 78.32 279.168 78.352C278.88 78.384 278.592 78.4 278.304 78.4C277.856 78.4 277.424 78.48 277.008 78.64C276.624 78.8 276.288 79.104 276 79.552Z" fill="#5660B2"/>
<path d="M229.252 101.952C229.444 100.416 229.636 99.072 229.828 97.728C230.02 95.424 230.212 93.12 230.404 90.816C230.596 88.704 230.788 86.4 230.98 84.288C231.172 80.64 231.172 76.992 231.364 73.152C231.364 71.616 231.364 71.424 232.9 71.04C235.972 70.08 238.852 69.12 242.116 68.352C244.42 67.776 246.916 67.584 249.412 67.008C250.948 66.816 251.14 66.816 251.14 68.544C250.948 73.344 250.948 78.336 250.756 83.328C250.564 85.632 250.372 87.744 250.372 90.048C250.18 94.464 250.372 98.88 251.524 103.296C251.716 104.064 251.332 105.216 252.484 105.408C253.636 105.6 253.636 104.256 254.02 103.68C254.788 103.68 255.556 103.68 256.132 103.488C256.132 102.528 256.132 101.76 256.132 100.992C255.94 95.616 256.132 90.24 256.516 85.056C256.516 82.56 256.708 80.064 256.9 77.568C256.9 74.88 256.708 72 256.708 69.312C256.9 67.968 256.9 66.432 257.476 65.28C258.052 64.512 259.396 64.32 260.356 63.936C260.548 63.936 260.548 63.744 260.74 63.744C260.356 61.824 260.356 61.824 257.284 61.824C257.284 61.248 257.284 60.864 257.284 60.288C257.284 57.792 257.476 55.296 257.668 52.992C257.86 49.344 258.052 45.888 258.436 42.24C258.82 37.824 259.396 33.216 259.972 28.608C259.972 27.264 260.164 26.112 260.356 24.768C260.356 23.808 259.78 23.04 259.012 22.656C256.708 21.696 255.172 22.464 254.98 24.96C254.98 25.152 254.788 25.152 254.788 25.344C254.404 25.536 254.02 25.536 253.636 25.536C253.252 27.648 252.1 29.568 253.828 31.488C254.02 31.68 253.636 32.256 253.636 32.64C253.252 32.448 253.06 32.448 252.868 32.256C252.1 36.288 252.1 40.32 252.1 44.352C252.1 46.848 252.484 49.152 251.908 51.456C251.524 52.608 251.524 53.76 251.524 54.912C251.332 57.408 251.332 59.904 251.14 62.592C251.14 63.36 250.564 63.744 249.796 63.936C249.028 64.128 248.068 64.32 247.3 64.512C243.844 65.28 240.58 66.24 237.124 67.2C235.396 67.584 233.668 67.968 231.748 68.544C231.748 66.816 231.556 65.28 231.748 63.744C231.94 61.632 232.324 59.328 232.324 57.216C232.324 53.76 233.092 50.304 232.708 46.656C232.708 46.464 232.708 46.272 232.708 46.08C232.708 44.736 232.9 43.392 232.9 41.856C232.9 41.088 232.708 40.128 233.092 39.168C233.476 37.44 233.284 35.52 233.092 33.6C232.516 33.216 231.94 33.024 231.364 32.832C230.02 32.832 228.868 32.832 227.524 32.832C226.564 32.832 226.18 33.216 226.18 34.176C225.988 36.48 225.988 38.592 225.988 40.896C225.988 41.664 225.988 42.624 225.988 43.392C225.796 46.848 225.604 50.112 225.604 53.568C225.796 58.752 225.22 63.936 224.836 69.312C224.836 69.888 224.452 70.464 223.684 70.656C222.34 70.848 220.996 71.04 219.652 71.424C219.268 71.424 218.884 71.616 218.5 71.808C218.884 72.384 219.46 72.768 220.036 72.768C220.996 72.96 222.148 72.768 223.3 72.576C223.684 72.576 224.26 72.576 224.836 72.576C224.836 73.536 224.836 74.112 224.836 74.688C224.644 77.184 224.26 79.68 224.068 82.176C223.876 82.944 223.684 83.904 223.684 84.672C223.492 87.36 223.492 90.048 223.3 92.736C223.3 92.928 223.3 93.12 223.3 93.312C222.916 96 221.956 98.688 224.452 100.992C224.26 102.528 225.796 102.72 226.372 103.68C227.14 102.528 226.372 101.184 227.14 100.032C227.524 100.8 227.524 101.376 227.716 101.952C228.292 101.952 228.676 101.952 229.252 101.952ZM252.868 84.288C252.868 85.056 252.676 85.824 252.676 86.592C252.484 86.592 252.484 86.592 252.292 86.592C252.292 85.824 252.292 85.056 252.292 84.288C252.484 84.288 252.676 84.288 252.868 84.288ZM304.749 83.04C303.789 84.576 302.829 86.304 301.677 88.032C299.949 90.528 298.797 93.408 296.301 95.52C295.341 96.48 294.381 97.248 293.229 98.016C291.885 99.36 290.925 98.976 290.157 97.44C289.197 95.52 289.005 93.6 288.813 91.488C288.621 90.72 288.429 89.76 288.429 88.8C288.621 87.072 289.005 85.344 289.197 83.616C289.389 81.12 289.581 78.432 289.965 75.936C290.733 72.288 291.501 68.64 292.461 64.992C292.653 64.224 293.037 63.264 292.269 62.688C291.309 62.112 290.733 60.576 289.005 61.152C288.045 62.88 286.893 64.8 285.741 66.528C283.629 69.6 281.325 72.672 279.405 75.744C277.485 78.624 275.181 80.928 272.877 83.232C271.533 84.576 270.189 85.344 268.077 85.152C267.309 83.808 267.117 82.464 267.309 81.12C267.501 75.936 268.845 70.752 269.037 65.568C269.229 62.688 269.997 59.808 270.573 56.928C271.149 54.432 271.341 52.128 269.997 49.824C269.805 49.632 269.805 49.248 269.805 48.864C269.421 48.096 269.037 47.328 268.077 46.944C267.309 47.904 266.349 48.672 266.157 49.632C265.197 52.896 264.237 56.16 263.661 59.616C262.701 64.032 261.933 68.448 261.357 72.864C260.973 76.32 260.397 79.776 261.357 83.232C262.317 85.92 263.469 87.84 266.157 88.608C267.309 88.8 268.269 89.184 269.229 88.8C273.261 87.84 276.141 85.344 278.253 82.08C279.981 79.392 281.133 76.512 283.245 74.016C283.437 73.824 283.629 73.632 284.205 73.056C284.013 74.976 283.629 76.512 283.437 77.856C283.245 81.12 282.861 84.192 282.669 87.264C282.093 91.104 282.861 94.56 284.973 97.824C287.085 100.896 292.845 102.624 296.109 98.784C297.261 97.248 298.797 95.712 299.757 94.176C301.293 91.872 302.829 89.76 303.597 87.072C303.981 85.92 304.749 84.96 305.133 83.808C305.325 83.616 305.133 83.424 305.133 83.04C305.133 83.04 304.941 83.04 304.749 83.04ZM262.893 75.168C262.701 76.32 262.317 77.28 261.933 78.624C261.741 78.24 261.741 78.048 261.741 77.856C261.741 76.512 261.741 74.976 262.125 73.632C262.701 71.904 262.701 70.176 262.893 68.448C263.085 68.064 263.277 67.68 263.469 67.296C263.469 69.984 263.277 72.672 262.893 75.168ZM285.165 87.072C284.973 88.224 284.781 89.184 284.397 90.528C284.205 90.144 284.205 89.952 284.205 89.76C284.205 88.416 283.821 86.88 284.205 85.536C284.589 83.616 284.397 82.08 284.589 80.352C284.589 79.968 284.781 79.584 284.973 79.2C285.165 81.696 285.357 84.384 285.165 87.072ZM337.211 51.36C337.019 49.44 335.483 47.328 333.563 46.944C333.179 47.328 332.795 47.712 332.603 48.096C332.219 48.672 332.027 49.248 332.027 49.824C332.027 52.704 330.875 55.2 329.531 57.504C328.379 59.808 326.651 61.536 326.267 64.032C326.267 64.416 325.883 64.608 325.883 64.8C323.579 68.256 321.275 71.52 318.779 74.784C317.627 76.512 316.283 78.24 314.747 79.776C313.403 81.312 311.867 82.848 310.331 84.192C309.563 84.96 308.603 85.344 307.451 86.304C306.875 85.152 306.299 84.384 306.299 83.616C306.299 82.656 306.683 81.504 306.875 80.352C306.875 79.584 307.259 78.624 307.259 77.856C307.259 75.552 307.451 73.44 308.219 71.328C308.603 69.984 308.795 68.64 309.179 67.296C309.179 67.104 309.179 66.912 308.987 66.72C308.603 65.952 308.795 65.184 309.179 64.416C309.563 63.072 309.755 61.728 310.139 60.384C310.331 59.808 310.139 59.232 310.139 58.656C309.947 58.08 309.563 57.696 308.795 58.08C307.451 58.656 305.723 59.232 305.723 61.152C305.531 61.728 305.147 62.112 304.955 62.496C304.571 63.072 304.379 63.648 304.187 64.224C303.611 65.76 303.227 67.488 302.843 69.216C301.883 73.44 300.923 77.664 300.155 81.888C299.771 84.192 299.963 86.496 301.307 88.608C302.075 89.952 303.227 90.528 304.571 90.336C308.603 89.952 312.059 88.224 314.747 85.152C316.475 83.424 317.819 81.312 319.355 79.392C320.507 77.664 321.659 75.744 322.811 74.016C324.347 71.52 325.883 68.832 327.419 66.336C327.995 65.376 328.571 64.608 329.147 63.84C329.147 63.84 329.147 63.84 329.339 63.84C328.955 65.568 328.379 67.296 327.995 68.832C327.035 73.056 326.267 77.472 325.307 81.696C324.539 84.768 323.771 87.84 323.003 90.912C322.235 93.6 321.467 96.096 320.699 98.784C319.355 104.928 318.395 111.072 316.667 117.216C316.475 117.984 316.091 118.752 315.899 119.712C315.323 122.4 314.363 124.896 313.019 127.2C312.251 128.544 310.907 129.504 310.331 130.656C308.987 132.96 306.875 134.304 304.955 135.84C304.379 136.416 303.803 136.608 303.035 136.992C300.923 137.568 299.963 136.8 300.155 134.496C300.347 131.04 301.307 127.584 302.267 124.32C303.035 121.248 303.995 118.176 305.531 115.296C307.259 112.032 309.371 109.152 311.867 106.656C313.979 104.352 315.899 102.048 317.243 99.168C316.283 98.784 315.515 99.168 314.939 99.936C313.979 100.704 313.019 101.856 311.867 102.432C311.099 102.816 310.331 103.2 309.755 103.968C306.875 106.656 304.763 109.92 302.843 113.376C300.539 117.6 299.003 122.208 297.659 126.816C297.083 128.928 296.123 131.04 296.315 133.152C296.699 136.224 297.851 138.72 300.731 140.256C301.307 140.64 301.883 141.024 302.459 140.832C304.379 140.448 306.107 139.872 307.643 139.296C311.675 137.76 313.787 134.112 316.475 131.232C318.587 129.12 319.739 126.24 320.699 123.36C321.083 122.4 321.467 121.44 322.043 120.48C323.579 117.408 324.155 114.144 325.115 110.88C325.883 108.96 326.075 107.04 326.651 104.928C327.611 100.896 328.379 96.864 329.339 92.832C330.107 89.376 331.067 86.112 331.835 82.656C332.219 80.928 332.411 79.2 332.603 77.472C332.795 77.088 332.795 76.704 332.987 76.512C333.563 73.824 334.331 71.136 334.907 68.64C335.483 66.144 335.675 63.84 336.251 61.344C336.827 58.08 337.211 54.816 337.211 51.36ZM305.531 74.4C305.723 73.056 305.531 71.52 306.107 70.176C306.875 68.448 306.875 66.72 307.259 64.992C307.451 64.608 307.643 64.416 307.835 64.032C307.835 66.72 307.451 69.216 306.875 71.904C306.491 72.864 306.107 74.016 305.723 75.168C305.531 74.784 305.339 74.592 305.531 74.4ZM321.275 118.368C320.891 119.328 320.315 120.288 319.739 121.632C319.739 121.056 319.739 120.864 319.739 120.864C320.123 119.328 320.123 117.792 320.891 116.448C321.659 114.912 321.851 113.184 322.427 111.648C322.619 111.264 322.811 110.88 323.195 110.496C322.811 113.184 322.043 115.872 321.275 118.368ZM375.655 74.208C372.967 77.472 370.279 80.736 367.399 84C365.287 86.496 362.983 88.8 360.487 91.104C358.951 92.256 357.799 91.68 357.991 89.76C358.567 86.112 359.143 82.464 360.103 78.816C361.255 73.248 362.983 67.872 364.135 62.304C364.711 60 363.559 58.08 361.639 56.736C359.911 55.584 358.183 56.352 356.455 57.312C352.039 60 348.967 64.032 345.895 67.872C345.511 68.448 344.935 68.832 344.167 69.792C344.359 66.528 344.743 63.84 344.935 61.152C345.127 57.888 345.511 54.816 345.511 51.744C345.511 50.784 344.743 49.248 343.975 48.672C343.015 47.904 339.943 50.016 339.559 51.168C339.175 53.28 338.791 55.392 338.599 57.696C337.639 65.184 336.871 72.672 336.103 80.16C335.911 81.312 335.527 82.464 335.527 83.616C335.143 87.456 334.759 91.104 334.567 94.752C334.567 96.672 333.607 98.784 336.103 100.128C336.871 99.36 338.023 98.784 338.407 97.824C339.559 94.944 340.327 91.872 341.095 88.8C341.863 85.152 342.247 81.504 343.207 77.856C345.127 71.712 348.391 66.336 352.999 61.92C353.959 60.96 355.111 60.192 356.071 59.616C357.415 59.04 358.567 59.424 358.759 61.152C359.143 63.648 358.951 66.144 357.991 68.448C356.647 72.672 355.111 76.704 354.151 80.928C353.575 84 353.383 87.264 353.575 90.528C353.767 92.832 355.879 93.792 357.991 93.024C359.719 92.448 361.255 91.872 362.599 90.72C367.783 86.688 372.583 82.08 376.039 76.32C376.423 75.936 376.423 75.168 376.423 74.4C376.231 74.4 375.847 74.208 375.655 74.208ZM363.175 61.728C363.367 61.152 363.175 60.576 363.367 60C363.367 59.808 363.367 59.808 363.367 59.616C363.559 60.576 363.559 61.344 363.367 62.304C363.367 62.688 363.175 62.88 363.175 63.456C362.983 63.264 362.983 63.264 362.983 63.264C362.983 62.688 362.983 62.112 363.175 61.728ZM336.295 91.68C336.295 92.448 335.911 93.216 335.719 94.176C335.719 93.984 335.527 93.792 335.527 93.792C335.527 92.64 335.335 91.488 335.719 90.528C336.103 89.376 335.911 88.032 336.103 86.88C336.103 86.496 336.295 86.304 336.487 86.112C336.487 88.032 336.487 89.76 336.295 91.68ZM418.634 83.424C418.634 83.616 418.442 84 418.25 84.192C415.946 89.568 411.914 93.6 407.69 97.44C405.77 98.976 404.234 101.088 401.354 101.28C399.626 101.28 399.626 100.704 399.626 99.552C400.202 94.56 400.778 89.376 401.354 84.384C401.738 80.928 402.314 77.472 403.082 74.016C403.85 69.792 405.002 65.76 405.578 61.728C405.962 60 405.77 57.888 404.81 56.736C402.314 53.472 398.09 52.32 394.25 54.24C389.834 56.16 387.146 60 384.65 63.84C382.922 66.528 381.386 69.216 379.658 71.904C379.466 70.176 379.658 68.256 380.042 66.528C380.618 62.112 381.386 57.504 381.962 53.088C382.538 49.44 382.73 45.984 383.306 42.336C383.882 38.688 384.458 35.232 385.034 31.776C385.61 27.744 386.186 23.52 386.762 19.488C387.338 15.648 386.954 14.112 384.65 12C384.266 12.576 383.882 12.96 383.498 13.536C381.578 11.616 380.81 15.648 378.89 13.92C378.698 16.224 378.698 18.336 378.506 20.256C377.738 27.168 377.162 34.08 376.394 40.992C375.626 47.328 375.05 53.664 374.282 59.808C373.898 64.224 373.322 68.64 372.938 72.864C372.554 77.088 372.17 81.312 371.978 85.536C371.786 89.184 371.786 92.64 371.594 96.288C371.594 96.864 371.786 97.44 371.978 98.208C372.554 98.016 373.322 97.824 374.09 97.632C374.09 97.824 374.474 98.208 374.858 98.784C375.626 97.44 376.394 96.288 376.778 94.944C377.354 91.488 377.546 88.032 378.122 84.576C378.314 82.464 378.506 80.544 379.082 78.624C379.658 76.704 380.81 74.976 381.77 73.056C383.306 70.56 384.842 67.872 386.57 65.376C388.874 61.536 391.37 57.888 395.786 56.16C398.09 55.2 400.202 56.352 399.818 58.848C399.434 63.072 398.474 67.296 397.898 71.712C397.322 76.896 396.746 82.08 396.17 87.264C395.978 90.336 395.402 93.6 395.786 96.672C396.554 101.856 398.666 104.544 404.234 103.008C406.538 102.432 408.458 100.896 410.186 99.168C413.834 95.52 416.33 91.488 418.634 87.264C419.018 86.304 419.018 84.96 419.402 83.808C419.21 83.616 418.826 83.424 418.634 83.424ZM404.426 61.152C404.618 60.576 404.618 60 404.618 59.424C404.618 59.232 404.618 59.04 404.81 59.04C404.81 59.808 404.81 60.768 404.81 61.728C404.618 61.92 404.618 62.304 404.426 62.88C404.426 62.688 404.426 62.688 404.426 62.496C404.426 62.112 404.234 61.536 404.426 61.152ZM374.09 92.64C373.898 93.408 373.706 94.176 373.514 95.136C373.322 94.752 373.322 94.752 373.322 94.56C373.322 93.6 373.13 92.448 373.514 91.488C373.898 90.144 373.706 88.992 373.898 87.648C373.898 87.456 374.09 87.072 374.282 86.88C374.282 88.8 374.282 90.72 374.09 92.64ZM375.05 79.968C374.858 81.312 374.474 82.848 374.09 84.576C373.706 84 373.706 83.808 373.706 83.616C373.706 81.696 373.322 79.584 373.898 77.856C374.666 75.552 374.282 73.44 374.666 71.136C374.666 70.56 374.858 70.176 375.242 69.6C375.434 73.056 375.434 76.512 375.05 79.968Z" fill="url(#paint1_linear)"/>
<defs>
<linearGradient id="paint0_linear" x1="273.5" y1="53" x2="273.5" y2="112" gradientUnits="userSpaceOnUse">
<stop stop-color="#5F6CD9"/>
<stop offset="1" stop-color="#2F398C" stop-opacity="0.82"/>
</linearGradient>
<linearGradient id="paint1_linear" x1="317.5" y1="32" x2="317.5" y2="119" gradientUnits="userSpaceOnUse">
<stop stop-color="#5F6CD9"/>
<stop offset="1" stop-color="#2F398C" stop-opacity="0.82"/>
</linearGradient>
</defs>
</svg>
