<svg width="450" height="173" viewBox="0 0 450 173" fill="none" xmlns="http://www.w3.org/2000/svg">
<path d="M82.4698 61.2C81.8198 60.81 81.0398 60.94 80.6498 61.59C64.2698 88.24 47.2398 98.9 35.6698 103.06C31.1198 104.75 24.2298 106.7 18.5098 104.1C9.53984 100.07 6.93984 87.98 6.28984 83.04C4.98984 74.07 7.19984 64.19 12.3998 55.35C17.4698 46.64 25.0098 39.49 33.5898 35.2C39.1798 32.47 45.2898 30.78 51.7898 30.39C52.5698 30.39 53.0898 29.87 53.0898 29.22C53.0898 28.57 52.6998 27.92 52.0498 27.79C50.7498 27.53 50.0998 26.75 49.8398 25.45C48.9298 20.38 55.1698 9.84999 61.6698 5.68999C63.6198 4.38999 66.3498 3.21999 68.5598 4.78C69.9898 5.68999 70.6399 6.85999 70.7698 8.29C70.8998 13.62 62.8398 21.29 59.7198 23.89C59.1998 24.28 59.0698 25.19 59.4598 25.71C59.9798 26.36 60.7598 26.36 61.4098 25.97C61.5398 25.84 64.3998 23.5 67.3898 20.12C71.5498 15.57 73.4998 11.54 73.3698 8.29C73.3698 5.95 72.1998 4 70.1198 2.56999C68.1698 1.26999 64.9198 0.359991 60.2398 3.48C52.8298 8.16 46.0698 19.86 47.2398 25.97C47.3698 26.75 47.6298 27.53 48.0198 28.18C42.5598 28.83 37.2298 30.39 32.4198 32.86C13.3098 42.22 0.959844 64.06 3.55984 83.43C4.33984 88.76 7.19984 101.89 17.4698 106.57C19.8098 107.61 22.2798 108 24.7498 108C29.1698 108 33.3298 106.7 36.5798 105.53C48.5398 101.24 66.2198 90.32 82.8598 63.02C83.2499 62.37 82.9898 61.59 82.4698 61.2ZM116.875 94.61C116.225 94.35 115.445 94.61 115.185 95.26C114.275 97.08 111.805 101.63 106.475 103.97C103.095 105.4 99.9752 105.53 97.8952 105.4C95.9452 104.49 94.3852 103.97 92.9552 103.58C93.4752 102.54 93.9952 101.37 94.6452 99.94C94.9052 99.29 95.0352 98.77 95.1652 98.51C95.2952 98.38 95.2952 98.25 95.4252 98.12C97.1152 98.12 98.6752 97.21 100.365 95.39C100.755 94.74 100.755 93.96 100.235 93.44C99.5852 93.05 98.8052 93.05 98.2852 93.57C97.7652 94.22 97.2452 94.61 96.8552 95C98.0252 91.75 98.1552 89.41 97.1152 87.98C96.5952 87.2 95.5552 86.29 93.4752 86.42C92.1752 86.55 90.8752 87.07 89.8352 87.85L80.7352 94.74C80.0852 95.26 79.9552 96.04 80.4752 96.56C80.8652 97.21 81.7752 97.34 82.2952 96.82L91.3952 89.93C92.1752 89.41 92.8252 89.15 93.6052 89.15C94.1252 89.02 94.7752 89.15 94.9052 89.41C95.0352 89.67 95.6852 90.97 93.8652 95.26C93.4752 95.13 92.9552 95.13 92.3052 95C91.2652 94.87 90.0952 94.87 89.0552 94.87C88.4052 95 87.7552 95.52 87.8852 96.3C87.8852 97.08 88.5352 97.6 89.3152 97.6C90.2252 97.47 91.0052 97.47 91.9152 97.6C92.1752 97.6 92.4352 97.73 92.6952 97.73C92.5652 97.99 92.3052 98.38 92.1752 98.9C91.7852 99.81 90.8752 101.63 90.0952 103.19C89.5752 103.19 89.0552 103.32 88.6652 103.45C88.1452 103.71 86.7152 104.23 86.5852 105.53C86.4552 106.57 87.3652 107.74 88.4052 108C89.5752 108.26 90.4852 107.61 91.5252 106.05C92.8252 106.18 94.6452 106.83 96.9852 107.87C97.1152 108 97.2452 108 97.3752 108C98.0252 108 98.6752 108.13 99.3252 108.13C101.665 108.13 104.525 107.74 107.515 106.44C113.495 103.71 116.355 99.03 117.525 96.43C117.915 95.78 117.525 94.87 116.875 94.61ZM149.441 94.74C148.921 94.35 148.011 94.61 147.751 95.26C142.811 103.84 135.401 106.7 132.281 104.88C130.461 103.97 129.421 100.85 129.161 96.56C130.981 95.13 132.281 93.31 132.411 91.49C132.541 91.1 132.671 87.98 130.721 87.33C130.461 87.2 129.681 87.2 128.901 87.72C126.691 89.15 126.431 92.92 126.431 94.09C126.431 94.35 126.431 94.74 126.431 95C125.391 95.65 124.091 96.04 122.921 96.17C120.581 96.43 118.501 95.52 117.331 94.87C116.681 94.48 115.901 94.61 115.511 95.26C115.121 95.91 115.251 96.69 115.901 97.08C117.591 98.12 120.061 99.16 123.181 98.9C124.351 98.77 125.521 98.38 126.561 97.99C126.951 101.76 128.121 105.66 130.981 107.22C132.021 107.74 133.191 108 134.491 108C139.301 108 145.671 104.23 149.961 96.56C150.351 95.91 150.091 95.13 149.441 94.74ZM129.811 90.58C129.811 90.84 129.811 91.1 129.811 91.23C129.681 91.75 129.551 92.14 129.291 92.66C129.421 91.88 129.551 91.1 129.811 90.58ZM189.134 94.35C188.484 94.09 187.704 94.35 187.444 95C184.454 100.85 175.094 103.84 170.154 101.89C167.554 100.85 166.774 98.51 167.944 95.26C168.984 92.01 168.594 89.8 166.904 88.5C165.084 87.33 161.964 87.59 157.544 89.41C154.164 90.97 150.264 93.31 147.144 95.91C143.894 98.51 140.254 102.28 141.554 105.14C142.074 106.57 143.244 107.48 144.674 107.87C145.194 108 145.714 108.13 146.234 108.13C151.824 108.13 160.534 102.02 164.824 98.9C165.214 102.28 167.684 103.71 169.114 104.36C175.224 106.83 186.144 103.45 189.784 96.17C190.044 95.52 189.784 94.74 189.134 94.35ZM165.344 94.35C165.344 94.74 165.214 95 165.084 95.26C159.494 99.81 149.354 106.31 145.324 105.27C144.674 105.14 144.284 104.75 144.024 104.1C143.634 103.45 144.804 101.24 148.834 97.99C154.034 93.7 160.794 90.45 164.044 90.45C164.694 90.45 165.084 90.58 165.344 90.71C165.994 91.23 165.994 92.53 165.344 94.35ZM295.144 4.13C294.494 3.86999 293.714 4.26 293.454 5.03999C293.454 5.17 287.994 21.55 282.664 40.14C280.064 49.24 277.984 57.43 276.424 64.45C272.784 59.38 267.974 54.57 262.124 50.02C252.244 42.48 242.754 38.58 242.364 38.45C242.364 38.45 242.234 38.45 242.234 38.32C247.174 19.34 252.634 3.34999 252.764 3.08999C252.894 2.44 252.634 1.66 251.854 1.39999C251.204 1.14 250.424 1.52999 250.164 2.31C250.034 2.83 232.484 54.31 231.054 83.95C230.924 84.73 231.574 85.38 232.224 85.38H232.354C233.004 85.38 233.654 84.86 233.654 84.08C234.304 71.86 237.684 55.61 241.454 40.92C242.624 41.44 251.464 45.34 260.564 52.23C267.714 57.56 272.394 63.02 275.644 67.96C273.434 78.49 272.524 86.29 272.784 91.23C273.304 99.68 275.384 105.79 278.244 107.22C278.764 107.48 279.154 107.61 279.674 107.61C280.194 107.61 280.844 107.35 281.364 106.96C284.484 104.75 285.524 96.43 284.224 83.95C283.704 78.36 281.754 72.77 278.504 67.57C284.224 41.05 295.794 6.33999 296.054 5.82C296.184 5.17 295.924 4.38999 295.144 4.13ZM281.624 84.21C283.054 98.51 281.104 103.97 279.804 104.88C279.674 104.88 279.544 104.88 279.414 104.88C278.244 104.23 276.034 99.94 275.384 91.1C275.124 86.42 276.034 79.4 277.724 71.47C280.194 76.28 281.234 80.7 281.624 84.21ZM333.799 95.26C333.409 94.61 332.629 94.35 331.979 94.74C325.089 98.9 321.189 99.03 319.239 98.51C317.679 97.99 317.159 96.95 317.159 96.95C316.899 96.56 316.509 96.3 316.119 96.17C315.599 96.04 315.209 96.3 314.819 96.56C312.479 99.42 304.809 106.31 299.349 105.4C298.829 105.27 298.309 105.01 298.049 104.49C296.229 101.76 297.139 94.87 297.659 92.4C297.789 91.62 297.269 90.97 296.619 90.84C295.839 90.58 295.189 91.1 294.929 91.88C294.799 92.79 292.979 101.89 295.839 105.92C296.619 107.09 297.659 107.74 298.829 108C299.349 108.13 299.869 108.13 300.389 108.13C306.629 108.13 313.259 102.15 315.729 99.55C316.379 100.07 317.159 100.59 318.329 100.98C321.969 102.15 327.039 100.85 333.279 97.08C333.929 96.69 334.189 95.91 333.799 95.26ZM370.709 94.35C370.059 94.22 369.279 94.61 369.149 95.39C367.979 100.85 363.819 104.88 359.529 105.01C356.929 105.14 354.849 103.84 353.549 102.8C353.549 102.8 353.419 102.8 353.419 102.67H353.289C353.289 102.67 353.289 102.67 353.159 102.67C353.159 102.54 353.159 102.54 353.029 102.54C353.029 102.54 353.029 102.54 352.899 102.54C352.899 102.54 352.899 102.54 352.769 102.54C352.769 102.54 352.769 102.54 352.639 102.54C352.639 102.54 352.639 102.54 352.509 102.54C352.509 102.54 352.509 102.54 352.379 102.54C352.379 102.54 352.379 102.54 352.249 102.67C352.119 102.67 352.119 102.67 352.119 102.67C351.989 102.67 351.989 102.8 351.989 102.8C351.989 102.8 351.859 102.8 351.859 102.93C350.689 103.97 349.519 105.14 348.219 106.31C348.479 102.8 348.739 99.16 348.869 95.65V95.52V95.39C348.869 95.26 348.739 95.26 348.739 95.26V95.13V95L348.609 94.87C348.609 94.87 348.609 94.87 348.609 94.74C348.609 94.74 348.479 94.74 348.479 94.61C348.479 94.61 348.479 94.61 348.349 94.61V94.48C348.219 94.48 348.219 94.48 348.219 94.35C348.089 94.35 348.089 94.35 348.089 94.35H347.959C347.829 94.35 347.829 94.22 347.829 94.22H347.699H347.569C347.569 94.22 347.569 94.22 347.439 94.22H347.309C347.309 94.22 347.309 94.22 347.179 94.22L347.049 94.35C346.919 94.35 346.919 94.35 346.789 94.48C346.659 94.48 346.659 94.48 346.659 94.61C346.529 94.61 346.529 94.61 346.529 94.61C346.529 94.74 346.529 94.74 346.399 94.74C346.399 94.87 346.399 94.87 346.399 94.87L346.269 95C342.499 102.93 337.949 105.79 336.519 105.27C335.219 104.75 334.309 101.11 334.829 95.78C334.959 95 334.439 94.35 333.659 94.35C332.879 94.22 332.229 94.74 332.229 95.52C331.189 105.27 334.439 107.35 335.479 107.74C335.869 107.87 336.389 108 336.909 108C339.509 108 342.889 105.4 345.879 100.98C345.749 103.71 345.619 106.57 345.359 109.3C333.919 121.13 319.619 138.55 317.279 154.54C316.109 162.73 317.019 168.19 320.269 171.05C321.699 172.48 323.519 173 325.339 173C327.549 173 329.629 172.22 330.929 171.57C333.269 170.27 335.999 168.32 338.599 162.34C341.329 156.1 343.539 146.35 345.619 132.31C346.529 125.16 347.439 117.88 347.959 110.47C349.649 108.65 351.339 107.09 352.899 105.66C354.459 106.7 356.669 107.61 359.269 107.61C359.399 107.61 359.529 107.61 359.659 107.61C365.249 107.48 370.189 102.67 371.749 95.91C371.879 95.26 371.489 94.48 370.709 94.35ZM342.889 131.92C338.339 164.68 332.749 167.67 329.759 169.23C329.759 169.23 324.819 171.7 322.089 169.1C319.619 166.89 318.839 162.08 319.879 154.93C322.089 140.76 334.309 124.9 345.099 113.46C344.449 119.7 343.799 125.94 342.889 131.92ZM410.317 94.74C409.797 94.09 409.017 93.96 408.367 94.35C402.257 98.77 397.317 100.2 393.807 98.77C391.857 97.86 390.817 96.3 389.647 94.61C388.607 92.92 387.437 91.23 385.097 90.58C381.327 89.54 376.777 92.53 370.927 99.68L374.437 87.98C374.567 87.33 374.177 86.55 373.527 86.42C372.747 86.16 371.967 86.55 371.837 87.33L366.247 106.31C366.117 106.96 366.377 107.61 367.027 107.87C367.157 108 367.417 108 367.547 108C368.067 108 368.457 107.74 368.717 107.48C377.947 93.83 382.497 92.66 384.447 93.18C385.747 93.44 386.527 94.61 387.437 96.17C388.607 97.86 390.037 99.94 392.767 101.11C397.187 103.06 403.037 101.5 409.927 96.56C410.577 96.17 410.707 95.26 410.317 94.74ZM448.853 94.61C448.203 94.09 447.423 94.09 446.903 94.74L446.383 95.39C440.013 102.54 434.553 105.92 429.873 105.27C427.663 104.88 425.583 103.71 423.633 102.54C421.033 100.85 418.303 99.16 415.053 100.07C413.753 100.46 412.453 101.11 411.413 102.28C411.413 100.33 411.543 97.99 411.803 95.26C418.433 84.73 427.403 69.13 434.033 54.57C442.353 36.37 444.433 24.93 440.663 19.34C438.583 16.48 436.243 16.74 435.073 17.26C427.403 20.25 419.603 46.38 416.613 57.43C412.973 71.21 410.243 84.73 409.203 94.61C409.203 94.74 409.203 94.74 409.203 94.87C408.682 99.81 408.552 103.84 408.943 106.57C409.073 107.22 409.463 107.61 410.113 107.74C410.633 107.87 411.153 107.48 411.413 106.96C412.713 104.49 414.143 103.06 415.703 102.67C417.913 102.02 419.993 103.32 422.333 104.75C424.413 106.05 426.753 107.48 429.483 107.87C430.133 108 430.653 108 431.173 108C436.373 108 441.963 104.36 448.333 97.08L448.983 96.43C449.373 95.91 449.373 95 448.853 94.61ZM419.213 58.08C425.062 36.5 431.563 21.42 435.983 19.73C436.243 19.73 436.373 19.6 436.633 19.6C437.153 19.6 437.673 19.86 438.453 20.9C443.523 28.18 433.903 53.4 412.713 88.76C414.013 79.92 416.223 69 419.213 58.08Z" fill="#322D75"/>
</svg>
